<svg width="42" height="73" viewBox="0 0 42 73" fill="none" xmlns="http://www.w3.org/2000/svg">
<path fill-rule="evenodd" clip-rule="evenodd" d="M7.94416 28.0552C8.90805 26.1416 10.0697 23.9737 12.407 24.6057C13.558 24.9164 14.4336 26.8724 12.2587 28.0764C9.87547 29.3898 9.42354 27.2926 7.38984 31.0457C7.38631 31.0563 7.87355 29.8523 6.3518 28.3518C-1.77946 20.337 7.26273 16.1425 7.73232 25.4637C7.7535 25.9121 7.58403 27.6033 7.94063 28.0587L7.94416 28.0552ZM30.7421 37.8035C30.682 37.6023 30.622 37.4081 30.562 37.221V37.2033V37.2139C30.216 36.1264 29.8664 35.2367 29.5875 34.6718C29.3227 34.1386 28.6872 34.4599 29.0049 35.1237C29.5557 35.9746 30.0359 37.0303 30.4172 38.199C29.8982 40.9635 28.8107 39.749 27.3349 41.5779C25.8485 43.4209 27.3243 44.8332 28.4541 44.692C30.7491 44.406 30.9892 42.0757 31.1481 40.0385C31.6283 40.3139 32.0873 41.8674 32.2673 42.2558C36.0417 50.3129 42.51 43.3503 32.4439 39.2088C31.42 38.7886 30.9504 38.2272 30.7385 37.8071L30.7421 37.8035ZM3.95091 63.5849C4.64646 63.8885 4.93598 64.284 5.29259 64.6371C5.69862 65.0431 6.18939 65.3962 7.47811 65.4915C7.48164 65.4915 4.91833 66.5719 3.80968 66.9744C1.03453 67.9842 -0.22947 66.8932 0.0423963 65.2337C0.296609 63.6696 1.48999 62.508 3.95444 63.5814L3.95091 63.5849ZM10.9064 64.6194C8.42081 64.4994 5.56798 64.291 5.13723 61.5088C4.92539 60.1389 6.58836 58.2853 8.8904 60.0295C11.4113 61.9396 8.97866 63.7438 13.9252 64.1286C13.9358 64.1286 12.8448 63.8426 11.9692 66.1659C7.29804 78.5799 -1.42639 70.9606 8.2478 66.0635C8.71033 65.8269 10.5887 65.2126 10.9064 64.6159V64.6194ZM18.9424 62.5681C16.5309 63.1753 13.7416 63.8038 12.52 61.2687C11.9198 60.0189 12.9719 57.7663 15.68 58.7655C18.6423 59.86 16.8416 62.2891 21.6857 61.2264C21.6963 61.2228 20.57 61.2652 20.4076 63.7438C19.5391 76.9734 8.98926 72.214 16.8204 64.7253C17.1947 64.3652 18.8117 63.2318 18.9424 62.5716V62.5681ZM24.9411 57.7804C22.8862 59.1821 20.4853 60.7321 18.4657 58.7725C17.4701 57.8086 17.6819 55.3265 20.57 55.3336C23.73 55.3407 22.8756 58.2429 27.056 55.5737C27.0666 55.5666 26.0215 55.9974 26.7241 58.3771C30.4702 71.0948 18.9247 70.265 23.6947 60.5344C23.9242 60.0683 25.0505 58.4477 24.9446 57.7804H24.9411ZM29.2556 52.7456C27.7939 54.172 26.078 55.7679 24.1643 54.4756C23.2216 53.8366 23.038 51.8029 25.3718 51.3933C27.9281 50.9449 28.0093 52.6573 31.0069 49.9033C31.0139 49.8963 29.8735 51.1497 30.7809 52.9751C35.6286 62.7199 26.1768 63.7014 28.6413 55.1535C28.7613 54.744 29.4392 53.2716 29.2556 52.7491V52.7456ZM31.6636 46.1678C30.7456 47.9932 29.6405 50.0587 27.4091 49.4585C26.311 49.1619 25.4777 47.2941 27.5503 46.1502C29.8205 44.8968 30.2513 46.8987 32.1897 43.3221C32.1932 43.315 31.7271 44.459 33.1783 45.8889C40.9282 53.5294 32.3097 57.5297 31.8613 48.6429C31.8401 48.2157 32.0025 46.6056 31.6636 46.1678ZM8.91158 36.8326C8.9716 37.0409 9.03516 37.2457 9.09871 37.4434V37.4646V37.454C9.45884 38.5944 9.82604 39.5301 10.1191 40.1197C10.3945 40.6811 11.0653 40.3421 10.7299 39.6466C10.1509 38.7533 9.64597 37.6482 9.247 36.423C9.79426 33.5243 10.9312 34.7989 12.4811 32.8782C14.0417 30.9433 12.4917 29.464 11.3089 29.6087C8.90452 29.9088 8.65031 32.3556 8.48083 34.4917C7.97594 34.2022 7.49576 32.5745 7.3051 32.1685C3.34716 23.7159 -3.4389 31.021 7.11797 35.3673C8.19484 35.8087 8.68208 36.3948 8.90805 36.8361L8.91158 36.8326ZM37.0162 9.78723C36.2853 9.46946 35.9817 9.05284 35.6109 8.68211C35.1837 8.25489 34.6682 7.8877 33.3195 7.78531C33.316 7.78531 36.0028 6.65194 37.168 6.22826C40.0808 5.16904 41.4048 6.31299 41.1224 8.05364C40.8541 9.6919 39.6042 10.9135 37.0162 9.7837V9.78723ZM29.7181 8.7033C32.3274 8.82687 35.3179 9.04578 35.7733 11.9657C35.9958 13.4027 34.2516 15.3481 31.8366 13.5157C29.1921 11.5138 31.7413 9.62129 26.5546 9.21525C26.5405 9.21525 27.688 9.51536 28.606 7.07563C33.5066 -5.94922 42.6547 2.04435 32.5074 7.18508C32.0202 7.43224 30.0536 8.07836 29.7181 8.7033ZM21.2868 10.857C23.8183 10.218 26.7417 9.56126 28.0234 12.2199C28.6554 13.5298 27.5468 15.8954 24.708 14.8468C21.5975 13.6993 23.4899 11.1501 18.4092 12.2658C18.3951 12.2693 19.5814 12.2234 19.7509 9.62482C20.6618 -4.25094 31.7307 0.737979 23.5147 8.59737C23.1192 8.97516 21.4245 10.1615 21.2868 10.857ZM14.995 15.8813C17.1523 14.4089 19.6697 12.7848 21.7881 14.8397C22.8332 15.853 22.6073 18.4516 19.5814 18.4481C16.2661 18.441 17.1629 15.3976 12.7777 18.1939C12.7671 18.2009 13.8617 17.7525 13.1273 15.2528C9.19757 1.91371 21.308 2.78227 16.3049 12.9896C16.0648 13.4804 14.882 15.1786 14.995 15.8777V15.8813ZM10.4686 21.1632C12.001 19.6662 13.8016 17.9926 15.8106 19.3484C16.7992 20.0157 16.9899 22.1518 14.5431 22.579C11.8633 23.0486 11.775 21.255 8.63265 24.1432C8.62559 24.1502 9.82251 22.8333 8.86921 20.9231C3.78144 10.7017 13.6992 9.67072 11.1148 18.6388C10.9912 19.0695 10.278 20.6124 10.4686 21.1632Z" fill="#41A152"/>
</svg>
